HIERARCHY
ROOT Hips
{
 OFFSET 0.000000 0.000000 0.000000
 CHANNELS 6 Xposition Yposition Zposition Yrotation Xrotation Zrotation
 JOINT Chest
 {
  OFFSET 0.000000 14.634200 -0.016200
  CHANNELS 3 Yrotation Xrotation Zrotation
  JOINT Chest2
  {
   OFFSET 0.000000 8.932900 0.033000
   CHANNELS 3 Yrotation Xrotation Zrotation
   JOINT Chest3
   {
    OFFSET 0.000000 8.892300 0.000000
    CHANNELS 3 Yrotation Xrotation Zrotation
    JOINT Chest4
    {
     OFFSET 0.000000 8.883200 0.000000
     CHANNELS 3 Yrotation Xrotation Zrotation
     JOINT Neck
     {
      OFFSET 0.000000 13.173600 0.000000
      CHANNELS 3 Yrotation Xrotation Zrotation
      JOINT Head
      {
       OFFSET 0.000000 8.324600 0.069800
       CHANNELS 3 Yrotation Xrotation Zrotation
       End Site
       {
        OFFSET 0.000000 15.692400 0.036900
       }
      }
     }
     JOINT RightCollar
     {
      OFFSET -2.619200 8.772200 0.000000
      CHANNELS 3 Yrotation Xrotation Zrotation
      JOINT RightShoulder
      {
       OFFSET -12.922000 0.000000 0.000000
       CHANNELS 3 Yrotation Xrotation Zrotation
       JOINT RightElbow
       {
        OFFSET 0.000000 -27.880900 0.000000
        CHANNELS 3 Yrotation Xrotation Zrotation
        JOINT RightWrist
        {
         OFFSET 0.000000 -22.758700 0.008200
         CHANNELS 3 Yrotation Xrotation Zrotation
         End Site
         {
          OFFSET 0.000000 -16.965000 0.000000
         }
        }
       }
      }
     }
     JOINT LeftCollar
     {
      OFFSET 2.619200 8.772200 0.000000
      CHANNELS 3 Yrotation Xrotation Zrotation
      JOINT LeftShoulder
      {
       OFFSET 12.922000 0.000000 0.000000
       CHANNELS 3 Yrotation Xrotation Zrotation
       JOINT LeftElbow
       {
        OFFSET 0.000000 -27.880900 0.000000
        CHANNELS 3 Yrotation Xrotation Zrotation
        JOINT LeftWrist
        {
         OFFSET 0.000000 -22.758700 0.008200
         CHANNELS 3 Yrotation Xrotation Zrotation
         End Site
         {
          OFFSET 0.000000 -16.965000 0.000000
         }
        }
       }
      }
     }
    }
   }
  }
 }
 JOINT RightHip
 {
  OFFSET -12.026800 0.080100 0.008100
  CHANNELS 3 Yrotation Xrotation Zrotation
  JOINT RightKnee
  {
   OFFSET 0.000000 -42.600800 -0.000200
   CHANNELS 3 Yrotation Xrotation Zrotation
   JOINT RightAnkle
   {
    OFFSET 0.000000 -38.219300 0.054300
    CHANNELS 3 Yrotation Xrotation Zrotation
    JOINT RightToe
    {
     OFFSET 0.000000 -9.685800 15.804700
     CHANNELS 3 Yrotation Xrotation Zrotation
     End Site
     {
      OFFSET 0.000000 -1.422300 5.761700
     }
    }
   }
  }
 }
 JOINT LeftHip
 {
  OFFSET 12.026800 0.080100 0.008100
  CHANNELS 3 Yrotation Xrotation Zrotation
  JOINT LeftKnee
  {
   OFFSET 0.000000 -42.600800 -0.000200
   CHANNELS 3 Yrotation Xrotation Zrotation
   JOINT LeftAnkle
   {
    OFFSET 0.000000 -38.219300 0.054300
    CHANNELS 3 Yrotation Xrotation Zrotation
    JOINT LeftToe
    {
     OFFSET 0.000000 -9.685800 15.804700
     CHANNELS 3 Yrotation Xrotation Zrotation
     End Site
     {
      OFFSET 0.000000 -1.422300 5.761700
     }
    }
   }
  }
 }
}
MOTION
Frames: 12
Frame Time: 0.008333
-7.612210 129.092850 17.417001 167.851391 -19.302447 7.749211 4.641184 14.484579 3.372413 0.399015 1.374326 0.267449 0.674469 2.308772 0.455122 4.096044 12.913718 2.960193 13.340380 16.548168 -3.066001 16.042058 -7.405930 -6.728895 0.927285 -5.668949 -4.695355 8.269477 -4.441913 -0.922036 52.396481 -49.365149 -34.111086 17.614786 10.362081 -36.827943 -1.729591 -5.133708 4.442571 -0.931921 -11.371620 -3.095904 -18.796800 -53.255356 -9.112795 -11.953524 19.387896 20.623642 3.102372 -56.570266 2.054713 -12.746840 82.477688 -23.489314 -7.650610 -20.762877 6.544563 -0.016965 0.005848 -0.010397 9.741240 -54.105329 -20.614935 82.017733 72.737679 84.587933 8.155508 -4.493617 -13.738866 0.006773 -0.004319 0.004151
-7.612872 129.092805 17.416850 167.839733 -19.295653 7.734498 4.622084 14.501703 3.364642 0.384346 1.385063 0.260112 0.669940 2.314140 0.452955 4.066198 12.934866 2.943693 13.339593 16.534351 -3.061618 16.114878 -7.441360 -6.759548 0.924517 -5.643630 -4.705146 8.307564 -4.506462 -0.914396 52.420040 -49.397502 -34.107350 17.603468 10.325760 -36.836950 -1.759495 -5.093711 4.419499 -0.968817 -11.478235 -3.056243 -18.740428 -53.249671 -9.030507 -11.975489 19.337509 20.620217 3.045148 -56.585239 2.158143 -12.708917 82.453406 -23.478972 -7.648504 -20.739356 6.541548 -0.007194 0.004251 -0.004409 9.813408 -54.081194 -20.602936 81.960243 72.726876 84.521558 8.100014 -4.506716 -13.676758 -0.008547 -0.000203 -0.005238
-7.613587 129.092725 17.416501 167.829963 -19.289094 7.719184 4.624688 14.502975 3.374539 0.370947 1.394178 0.253375 0.638436 2.336933 0.436241 4.033972 12.957225 2.924241 13.334618 16.523957 -3.054096 16.035785 -7.438054 -6.715748 0.924924 -5.617462 -4.714591 8.347105 -4.577575 -0.912436 52.429015 -49.434614 -34.088503 17.595647 10.292535 -36.845061 -1.791169 -5.066621 4.395713 -1.008832 -11.581539 -3.014902 -18.709715 -53.235125 -8.918587 -11.989633 19.307109 20.624356 3.004129 -56.597631 2.228656 -12.577460 82.429196 -23.352838 -7.636849 -20.722283 6.533092 -0.003894 0.005875 -0.002386 9.862353 -54.064576 -20.586891 81.898841 72.734488 84.468150 8.070894 -4.503177 -13.648167 -0.015157 -0.001291 -0.009289
-7.614176 129.092661 17.416094 167.816436 -19.281973 7.704337 4.596265 14.528498 3.357800 0.354200 1.408810 0.238547 0.646490 2.334545 0.438917 4.001371 12.980915 2.901074 13.383667 16.483506 -3.038667 15.936332 -7.409954 -6.661422 0.925657 -5.595448 -4.718293 8.389632 -4.652025 -0.910342 52.451071 -49.472976 -34.075581 17.551970 10.260505 -36.862294 -1.818643 -5.060985 4.375070 -1.054549 -11.676770 -2.976306 -18.656907 -53.197727 -8.812706 -12.038470 19.277586 20.626376 2.963616 -56.607164 2.298866 -12.489619 82.398976 -23.266844 -7.620248 -20.718590 6.530454 -0.000677 0.004100 -0.000415 9.871599 -54.064252 -20.557852 81.894669 72.721268 84.443882 8.081583 -4.480145 -13.627904 -0.030622 0.002694 -0.018767
-7.615386 129.092677 17.415674 167.813082 -19.275773 7.687971 4.520450 14.585577 3.295778 0.388854 1.387109 0.260913 0.641768 2.342674 0.434444 3.969511 13.006203 2.875365 13.341022 16.494417 -3.021891 15.941073 -7.431643 -6.648558 0.923498 -5.580461 -4.714782 8.446346 -4.731543 -0.902161 52.459882 -49.502414 -34.060098 17.537176 10.245838 -36.872115 -1.842057 -5.078737 4.356407 -1.108592 -11.760833 -2.943278 -18.621015 -53.152194 -8.686666 -12.090800 19.256459 20.630155 2.909346 -56.615859 2.372626 -12.467843 82.365453 -23.245948 -7.612759 -20.714905 6.519817 -0.000722 0.002333 -0.000442 9.939471 -54.040647 -20.558093 81.796277 72.747899 84.381623 8.066435 -4.470738 -13.620895 -0.021688 -0.003038 -0.013291
-7.615331 129.092207 17.416591 167.811959 -19.265547 7.664027 4.466930 14.623266 3.259755 0.439969 1.350828 0.295830 0.594673 2.381926 0.403887 3.939293 13.033742 2.849622 13.290077 16.513492 -3.003841 15.937272 -7.450436 -6.632144 0.919063 -5.572080 -4.707867 8.527146 -4.821205 -0.882951 52.420750 -49.513652 -34.026408 17.554321 10.226511 -36.876800 -1.865432 -5.114920 4.338435 -1.168392 -11.834293 -2.920042 -18.639386 -53.104323 -8.504934 -12.115949 19.238202 20.631905 2.834217 -56.630567 2.470100 -12.481193 82.331656 -23.265027 -7.606135 -20.696700 6.500754 -0.002188 0.004164 -0.001341 9.995356 -54.023953 -20.547001 81.707128 72.774824 84.326534 8.046658 -4.470324 -13.608391 -0.014669 -0.009594 -0.008989
-7.615799 129.092455 17.415977 167.802760 -19.260744 7.644790 4.427339 14.658277 3.231846 0.398375 1.387605 0.266187 0.631631 2.358489 0.426753 3.911590 13.063068 2.824701 13.260242 16.522131 -2.983534 15.893262 -7.445378 -6.599908 0.912777 -5.565279 -4.700892 8.575361 -4.894448 -0.886655 52.372618 -49.561483 -33.969147 17.570066 10.189960 -36.877904 -1.890837 -5.159732 4.322679 -1.229161 -11.904923 -2.909981 -18.670937 -53.048747 -8.309633 -12.128820 19.222734 20.637715 2.760546 -56.638180 2.573307 -12.495495 82.298515 -23.290941 -7.604075 -20.679763 6.483876 -0.002105 0.005495 -0.001290 10.086850 -53.988472 -20.546768 81.614376 72.802904 84.275241 7.988397 -4.481395 -13.579827 -0.007685 -0.009958 -0.004709
-7.613143 129.092978 17.414377 167.756933 -19.258017 7.624661 4.451865 14.678925 3.242667 0.352549 1.422862 0.236350 0.644030 2.356668 0.432749 3.885660 13.093266 2.800384 13.219975 16.538504 -2.962619 15.835650 -7.432739 -6.563921 0.903170 -5.554036 -4.694947 8.623022 -4.969743 -0.892191 52.350835 -49.614095 -33.929803 17.534314 10.157964 -36.898320 -1.919651 -5.204169 4.311213 -1.287300 -11.980343 -2.911857 -18.682316 -52.988138 -8.120874 -12.139222 19.210066 20.639614 2.694831 -56.636956 2.705188 -12.474658 82.260466 -23.283167 -7.604072 -20.672879 6.471549 -0.002637 0.003321 -0.001616 10.115329 -53.976531 -20.494983 81.665847 72.792882 84.302998 7.972988 -4.489249 -13.507133 -0.022808 -0.003588 -0.013977
-7.615015 129.093544 17.413469 167.736415 -19.252543 7.610628 4.450026 14.695223 3.238396 0.319205 1.446957 0.218085 0.674813 2.339706 0.447813 3.821130 13.150979 2.762004 13.168888 16.563229 -2.942389 15.764371 -7.411788 -6.525553 0.892279 -5.534620 -4.691541 8.617071 -5.033084 -0.927651 52.414726 -49.702963 -33.909837 17.529081 10.140796 -36.906529 -1.947213 -5.240448 4.302076 -1.343472 -12.063723 -2.921634 -18.716614 -52.927014 -7.928728 -12.102762 19.197732 20.666390 2.654833 -56.635815 2.777295 -12.406408 82.227567 -23.215443 -7.605588 -20.700723 6.486997 -0.004381 -0.004294 -0.002684 10.172745 -53.959041 -20.488342 81.627503 72.817205 84.282936 7.955866 -4.490016 -13.466083 -0.022720 -0.008785 -0.013923
-7.616703 129.094602 17.410979 167.725218 -19.254405 7.591136 4.408801 14.738085 3.212433 0.311663 1.449904 0.218975 0.709847 2.325230 0.460871 3.749958 13.205353 2.729240 13.106634 16.598547 -2.924146 15.679365 -7.379800 -6.486089 0.883660 -5.502829 -4.693006 8.636431 -5.121917 -0.958218 52.478163 -49.770506 -33.894153 17.527155 10.135322 -36.908536 -1.968040 -5.261631 4.289398 -1.401765 -12.155408 -2.935380 -18.650387 -52.856007 -7.806715 -12.103758 19.176383 20.692620 2.599015 -56.635027 2.860182 -12.428982 82.209233 -23.245898 -7.595432 -20.700346 6.484738 -0.012395 -0.002591 -0.007596 10.243697 -53.924585 -20.491660 81.530105 72.850031 84.232555 7.938734 -4.489100 -13.452478 -0.011408 -0.018553 -0.006990
-7.619089 129.095231 17.409240 167.714676 -19.251499 7.570068 4.310678 14.801940 3.152193 0.356633 1.428184 0.242108 0.651801 2.371486 0.433332 3.776686 13.195324 2.734599 13.032213 16.645760 -2.908401 15.579568 -7.335338 -6.445856 0.877546 -5.458059 -4.700781 8.677199 -5.233124 -0.989664 52.476314 -49.829884 -33.848243 17.533565 10.114048 -36.929453 -1.982668 -5.269191 4.271356 -1.463727 -12.248157 -2.949669 -18.568093 -52.793267 -7.693098 -12.095696 19.157759 20.721863 2.449435 -56.634438 3.036352 -12.461650 82.169380 -23.335287 -7.593467 -20.680314 6.473108 -0.006360 -0.001869 -0.003897 10.247458 -53.919053 -20.461872 81.509880 72.864313 84.217583 7.924691 -4.475476 -13.405268 -0.009248 -0.023076 -0.005666
-7.622627 129.095168 17.408783 167.690577 -19.238781 7.553274 4.254597 14.838942 3.115507 0.371096 1.424627 0.249232 0.626808 2.391121 0.423814 3.763246 13.210153 2.727746 12.945300 16.703653 -2.895070 15.464616 -7.279987 -6.404836 0.872052 -5.405577 -4.714011 8.741728 -5.359413 -1.012682 52.378992 -49.877328 -33.778096 17.587846 10.091593 -36.911291 -1.995326 -5.268113 4.250313 -1.523272 -12.336041 -2.961292 -18.495937 -52.743606 -7.559045 -12.088364 19.149759 20.734939 2.370781 -56.641171 3.151372 -12.288934 82.113909 -23.180261 -7.600762 -20.648378 6.456503 -0.002165 -0.001572 -0.001327 10.248177 -53.928687 -20.424717 81.534272 72.894842 84.215398 7.952533 -4.470902 -13.331388 -0.017209 -0.022781 -0.010544
